<mxfile host="Electron" agent="Mozilla/5.0 (Macintosh; Intel Mac OS X 10_15_7) AppleWebKit/537.36 (KHTML, like Gecko) draw.io/24.7.17 Chrome/128.0.6613.36 Electron/32.0.1 Safari/537.36" version="24.7.17">
  <diagram name="Seite-1" id="SAhqgb4drjFWhyu3D_Xa">
    <mxGraphModel dx="969" dy="869" grid="1" gridSize="10" guides="1" tooltips="1" connect="1" arrows="1" fold="1" page="1" pageScale="1" pageWidth="827" pageHeight="1169" math="0" shadow="0">
      <root>
        <mxCell id="0" />
        <mxCell id="1" parent="0" />
        <mxCell id="JDpEO1lSi9x2BgJFtEtq-62" value="" style="rounded=1;whiteSpace=wrap;html=1;strokeWidth=1;fillColor=#F0F0F0;" vertex="1" parent="1">
          <mxGeometry x="44" y="30" width="680" height="390" as="geometry" />
        </mxCell>
        <mxCell id="JDpEO1lSi9x2BgJFtEtq-2" value="" style="rounded=0;whiteSpace=wrap;html=1;fillColor=#dae8fc;strokeColor=#6c8ebf;strokeWidth=2;" vertex="1" parent="1">
          <mxGeometry x="94" y="50" width="600" height="220" as="geometry" />
        </mxCell>
        <mxCell id="JDpEO1lSi9x2BgJFtEtq-3" value="" style="rounded=0;whiteSpace=wrap;html=1;fillColor=#FFCCCC;strokeColor=#666666;strokeWidth=2;fontColor=#333333;" vertex="1" parent="1">
          <mxGeometry x="94" y="280" width="600" height="120" as="geometry" />
        </mxCell>
        <mxCell id="JDpEO1lSi9x2BgJFtEtq-5" value="External Representation Layer" style="text;html=1;align=left;verticalAlign=middle;whiteSpace=wrap;rounded=0;fontStyle=1;fontSize=16;" vertex="1" parent="1">
          <mxGeometry x="102" y="54" width="330" height="30" as="geometry" />
        </mxCell>
        <mxCell id="JDpEO1lSi9x2BgJFtEtq-6" value="Internal Representation Layer" style="text;html=1;align=left;verticalAlign=middle;whiteSpace=wrap;rounded=0;fontStyle=1;fontSize=16;" vertex="1" parent="1">
          <mxGeometry x="102" y="280" width="330" height="30" as="geometry" />
        </mxCell>
        <mxCell id="JDpEO1lSi9x2BgJFtEtq-9" value="&lt;ul style=&quot;font-size: 14px;&quot;&gt;&lt;li style=&quot;font-size: 14px;&quot;&gt;User-facing DSL&lt;/li&gt;&lt;li style=&quot;font-size: 14px;&quot;&gt;Full language feature set&lt;br&gt;including &quot;syntactic sugar&quot;&lt;/li&gt;&lt;/ul&gt;" style="text;html=1;align=left;verticalAlign=middle;whiteSpace=wrap;rounded=0;fontSize=14;" vertex="1" parent="1">
          <mxGeometry x="94" y="83" width="280" height="57" as="geometry" />
        </mxCell>
        <mxCell id="JDpEO1lSi9x2BgJFtEtq-11" value="Comments" style="rounded=0;whiteSpace=wrap;html=1;strokeWidth=2;fillColor=#FFFFCC;" vertex="1" parent="1">
          <mxGeometry x="565" y="198.5" width="108" height="30" as="geometry" />
        </mxCell>
        <mxCell id="JDpEO1lSi9x2BgJFtEtq-12" value="Any Of" style="rounded=0;whiteSpace=wrap;html=1;strokeWidth=2;fillColor=#FFFFCC;" vertex="1" parent="1">
          <mxGeometry x="208" y="198.5" width="75" height="30" as="geometry" />
        </mxCell>
        <mxCell id="JDpEO1lSi9x2BgJFtEtq-13" value="Contains Any Of" style="rounded=0;whiteSpace=wrap;html=1;strokeWidth=2;fillColor=#FFFFCC;" vertex="1" parent="1">
          <mxGeometry x="298" y="198.5" width="108" height="30" as="geometry" />
        </mxCell>
        <mxCell id="JDpEO1lSi9x2BgJFtEtq-15" value="Complex NOT" style="shape=hexagon;perimeter=hexagonPerimeter2;whiteSpace=wrap;html=1;fixedSize=1;strokeWidth=2;fillColor=#FFFFCC;" vertex="1" parent="1">
          <mxGeometry x="430" y="198.5" width="120" height="30" as="geometry" />
        </mxCell>
        <mxCell id="JDpEO1lSi9x2BgJFtEtq-17" value="Simple NOT" style="shape=hexagon;perimeter=hexagonPerimeter2;whiteSpace=wrap;html=1;fixedSize=1;strokeWidth=2;" vertex="1" parent="1">
          <mxGeometry x="430" y="155.5" width="120" height="30" as="geometry" />
        </mxCell>
        <mxCell id="JDpEO1lSi9x2BgJFtEtq-18" value="&amp;lt;=" style="rounded=0;whiteSpace=wrap;html=1;strokeWidth=2;fillColor=#FFFFCC;" vertex="1" parent="1">
          <mxGeometry x="161" y="155.5" width="30" height="30" as="geometry" />
        </mxCell>
        <mxCell id="JDpEO1lSi9x2BgJFtEtq-19" value="&amp;gt;=" style="rounded=0;whiteSpace=wrap;html=1;strokeWidth=2;fillColor=#FFFFCC;" vertex="1" parent="1">
          <mxGeometry x="253" y="155.5" width="30" height="30" as="geometry" />
        </mxCell>
        <mxCell id="JDpEO1lSi9x2BgJFtEtq-20" value="&amp;lt;" style="rounded=0;whiteSpace=wrap;html=1;strokeWidth=2;" vertex="1" parent="1">
          <mxGeometry x="116" y="155.5" width="30" height="30" as="geometry" />
        </mxCell>
        <mxCell id="JDpEO1lSi9x2BgJFtEtq-21" value="&amp;gt;" style="rounded=0;whiteSpace=wrap;html=1;strokeWidth=2;" vertex="1" parent="1">
          <mxGeometry x="298" y="155.5" width="30" height="30" as="geometry" />
        </mxCell>
        <mxCell id="JDpEO1lSi9x2BgJFtEtq-22" value="=" style="rounded=0;whiteSpace=wrap;html=1;strokeWidth=2;" vertex="1" parent="1">
          <mxGeometry x="208" y="155.5" width="30" height="30" as="geometry" />
        </mxCell>
        <mxCell id="JDpEO1lSi9x2BgJFtEtq-24" value="Between" style="rounded=0;whiteSpace=wrap;html=1;strokeWidth=2;fontStyle=0;fillColor=#FFFFCC;" vertex="1" parent="1">
          <mxGeometry x="116" y="198.5" width="75" height="30" as="geometry" />
        </mxCell>
        <mxCell id="JDpEO1lSi9x2BgJFtEtq-25" value="Contains" style="rounded=0;whiteSpace=wrap;html=1;strokeWidth=2;" vertex="1" parent="1">
          <mxGeometry x="342" y="155.5" width="64" height="30" as="geometry" />
        </mxCell>
        <mxCell id="JDpEO1lSi9x2BgJFtEtq-26" value="AND" style="rhombus;whiteSpace=wrap;html=1;strokeWidth=2;" vertex="1" parent="1">
          <mxGeometry x="565" y="150.5" width="44" height="40" as="geometry" />
        </mxCell>
        <mxCell id="JDpEO1lSi9x2BgJFtEtq-27" value="OR" style="rhombus;whiteSpace=wrap;html=1;strokeWidth=2;" vertex="1" parent="1">
          <mxGeometry x="629" y="150.5" width="44" height="40" as="geometry" />
        </mxCell>
        <mxCell id="JDpEO1lSi9x2BgJFtEtq-35" value="" style="shape=flexArrow;endArrow=classic;html=1;rounded=0;fillColor=#FF3333;gradientColor=#FF9999;gradientDirection=north;strokeColor=none;shadow=1;" edge="1" parent="1">
          <mxGeometry width="50" height="50" relative="1" as="geometry">
            <mxPoint x="394" y="300" as="sourcePoint" />
            <mxPoint x="394" y="240" as="targetPoint" />
          </mxGeometry>
        </mxCell>
        <mxCell id="JDpEO1lSi9x2BgJFtEtq-36" value="" style="shape=flexArrow;endArrow=classic;html=1;rounded=0;fillColor=#FF3333;gradientColor=none;gradientDirection=north;strokeColor=none;shadow=1;" edge="1" parent="1">
          <mxGeometry width="50" height="50" relative="1" as="geometry">
            <mxPoint x="394" y="270" as="sourcePoint" />
            <mxPoint x="394" y="310" as="targetPoint" />
          </mxGeometry>
        </mxCell>
        <mxCell id="JDpEO1lSi9x2BgJFtEtq-39" value="" style="shape=umlActor;verticalLabelPosition=bottom;verticalAlign=top;html=1;outlineConnect=0;strokeWidth=2;strokeColor=#4D4D4D;" vertex="1" parent="1">
          <mxGeometry x="658" y="64" width="18" height="36" as="geometry" />
        </mxCell>
        <mxCell id="JDpEO1lSi9x2BgJFtEtq-48" value="" style="shape=image;aspect=fixed;image=data:image/svg+xml,PD94bWwgdmVyc2lvbj0iMS4wIiBlbmNvZGluZz0iVVRGLTgiIHN0YW5kYWxvbmU9Im5vIj8+CjxzdmcKICAgd2lkdGg9IjQwLjI5OTk4NG1tIgogICBoZWlnaHQ9IjQwLjMwMDA2NG1tIgogICB2aWV3Qm94PSIwIDAgNDAuMjk5OTg0IDQwLjMwMDA2NCIKICAgdmVyc2lvbj0iMS4xIgogICBpZD0ic3ZnMzM4MSIKICAgaW5rc2NhcGU6dmVyc2lvbj0iMS4zLWJldGEgKGNlZGJkNmMsIDIwMjMtMDUtMjgpIgogICBzb2RpcG9kaTpkb2NuYW1lPSJ6YWhucmFkLWxpbmllLWZldHQtZ3JheS5zdmciCiAgIHhtbG5zOmlua3NjYXBlPSJodHRwOi8vd3d3Lmlua3NjYXBlLm9yZy9uYW1lc3BhY2VzL2lua3NjYXBlIgogICB4bWxuczpzb2RpcG9kaT0iaHR0cDovL3NvZGlwb2RpLnNvdXJjZWZvcmdlLm5ldC9EVEQvc29kaXBvZGktMC5kdGQiCiAgIHhtbG5zPSJodHRwOi8vd3d3LnczLm9yZy8yMDAwL3N2ZyIKICAgeG1sbnM6c3ZnPSJodHRwOi8vd3d3LnczLm9yZy8yMDAwL3N2ZyIKICAgeG1sbnM6cmRmPSJodHRwOi8vd3d3LnczLm9yZy8xOTk5LzAyLzIyLXJkZi1zeW50YXgtbnMjIgogICB4bWxuczpjYz0iaHR0cDovL2NyZWF0aXZlY29tbW9ucy5vcmcvbnMjIgogICB4bWxuczpkYz0iaHR0cDovL3B1cmwub3JnL2RjL2VsZW1lbnRzLzEuMS8iPgogIDxkZWZzCiAgICAgaWQ9ImRlZnMzMzc1IiAvPgogIDxzb2RpcG9kaTpuYW1lZHZpZXcKICAgICBpZD0iYmFzZSIKICAgICBwYWdlY29sb3I9IiNmZmZmZmYiCiAgICAgYm9yZGVyY29sb3I9IiM2NjY2NjYiCiAgICAgYm9yZGVyb3BhY2l0eT0iMS4wIgogICAgIGlua3NjYXBlOnBhZ2VvcGFjaXR5PSIwLjAiCiAgICAgaW5rc2NhcGU6cGFnZXNoYWRvdz0iMiIKICAgICBpbmtzY2FwZTp6b29tPSI1LjYiCiAgICAgaW5rc2NhcGU6Y3g9IjExNC4wMTc4NiIKICAgICBpbmtzY2FwZTpjeT0iNjkuMzc1IgogICAgIGlua3NjYXBlOmRvY3VtZW50LXVuaXRzPSJtbSIKICAgICBpbmtzY2FwZTpjdXJyZW50LWxheWVyPSJsYXllcjEiCiAgICAgaW5rc2NhcGU6ZG9jdW1lbnQtcm90YXRpb249IjAiCiAgICAgc2hvd2dyaWQ9ImZhbHNlIgogICAgIHNob3dndWlkZXM9InRydWUiCiAgICAgaW5rc2NhcGU6Z3VpZGUtYmJveD0idHJ1ZSIKICAgICBmaXQtbWFyZ2luLXRvcD0iMCIKICAgICBmaXQtbWFyZ2luLWxlZnQ9IjAiCiAgICAgZml0LW1hcmdpbi1yaWdodD0iMCIKICAgICBmaXQtbWFyZ2luLWJvdHRvbT0iMCIKICAgICBpbmtzY2FwZTp3aW5kb3ctd2lkdGg9IjIyNzIiCiAgICAgaW5rc2NhcGU6d2luZG93LWhlaWdodD0iMTIyNiIKICAgICBpbmtzY2FwZTp3aW5kb3cteD0iMTM5IgogICAgIGlua3NjYXBlOndpbmRvdy15PSI1NiIKICAgICBpbmtzY2FwZTp3aW5kb3ctbWF4aW1pemVkPSIwIgogICAgIGlua3NjYXBlOnNob3dwYWdlc2hhZG93PSIyIgogICAgIGlua3NjYXBlOnBhZ2VjaGVja2VyYm9hcmQ9IjAiCiAgICAgaW5rc2NhcGU6ZGVza2NvbG9yPSIjZDFkMWQxIj4KICAgIDxzb2RpcG9kaTpndWlkZQogICAgICAgcG9zaXRpb249IjI4MS44NTA5NCwtMC4wNDgyMDQzNTQiCiAgICAgICBvcmllbnRhdGlvbj0iMSwwIgogICAgICAgaWQ9Imd1aWRlNDAwNCIKICAgICAgIGlua3NjYXBlOmxvY2tlZD0iZmFsc2UiIC8+CiAgICA8c29kaXBvZGk6Z3VpZGUKICAgICAgIHBvc2l0aW9uPSIyNzguMjAxNjksLTgwLjk3NDk2MiIKICAgICAgIG9yaWVudGF0aW9uPSIxLDAiCiAgICAgICBpZD0iZ3VpZGU0MDcwIgogICAgICAgaW5rc2NhcGU6bG9ja2VkPSJmYWxzZSIgLz4KICAgIDxzb2RpcG9kaTpndWlkZQogICAgICAgcG9zaXRpb249IjIxNy45NTk2OCwtMTM2LjU3NDUiCiAgICAgICBvcmllbnRhdGlvbj0iMSwwIgogICAgICAgaWQ9Imd1aWRlNDA4MCIKICAgICAgIGlua3NjYXBlOmxvY2tlZD0iZmFsc2UiIC8+CiAgPC9zb2RpcG9kaTpuYW1lZHZpZXc+CiAgPG1ldGFkYXRhCiAgICAgaWQ9Im1ldGFkYXRhMzM3OCI+CiAgICA8cmRmOlJERj4KICAgICAgPGNjOldvcmsKICAgICAgICAgcmRmOmFib3V0PSIiPgogICAgICAgIDxkYzpmb3JtYXQ+aW1hZ2Uvc3ZnK3htbDwvZGM6Zm9ybWF0PgogICAgICAgIDxkYzp0eXBlCiAgICAgICAgICAgcmRmOnJlc291cmNlPSJodHRwOi8vcHVybC5vcmcvZGMvZGNtaXR5cGUvU3RpbGxJbWFnZSIgLz4KICAgICAgPC9jYzpXb3JrPgogICAgPC9yZGY6UkRGPgogIDwvbWV0YWRhdGE+CiAgPGcKICAgICBpbmtzY2FwZTpsYWJlbD0iRWJlbmUgMSIKICAgICBpbmtzY2FwZTpncm91cG1vZGU9ImxheWVyIgogICAgIGlkPSJsYXllcjEiCiAgICAgdHJhbnNmb3JtPSJ0cmFuc2xhdGUoLTE5Ljk2MzA0NiwtNDEuNzgzNDk1KSI+CiAgICA8cGF0aAogICAgICAgaWQ9InBhdGg0MDYwIgogICAgICAgc3R5bGU9ImZpbGw6IzMzMzMzMztmaWxsLW9wYWNpdHk6MTtzdHJva2Utd2lkdGg6MC4xMDg1ODYiCiAgICAgICBkPSJtIDM3LjA4ODk1Miw0MS43ODM0OTUgYyAtMC4xNDE5MDUsMC4wMzYzIC0wLjI4Mzk3NiwwLjA3MjUxIC0wLjQyNTg4MiwwLjEwODgxNCAtMS4wOTU1MTgsMC4yOTAzNDcgLTIuMjAyNTI4LDAuNTQxNDQ4IC0zLjI4NjI3NCwwLjg3MjU5MiAtMC4xMTI3NDUsMC4wODU1MiAtMC40MDEzODksMC4wNjM0OSAtMC4zNTAzOSwwLjI0OTM4NSAwLjEyOTYwOCwxLjU0Nzg5NyAwLjI1MDY4MSwzLjA5NjExOCAwLjM2NjAwOSw0LjY0NTE0IC0wLjcxNDg1MiwwLjMzNDI4NiAtMS40MDQxMDcsMC43MjM1NDMgLTIuMDYwNjg5LDEuMTYxMDI2IC0xLjIwNDIwNSwtMC44NTMwNTkgLTIuMzkzMzM2LC0xLjcyODk2NCAtMy42MDQ5MDQsLTIuNTcwMzk1IC0wLjI5MDMzMywtMC4xNjU2NjkgLTAuNjIzMjA2LDAuMDE2NTIgLTAuODI5Mzc3LDAuMjM0Mjg3IC0wLjc2NzY5NiwwLjczNjA0IC0xLjUzNTkxMSwxLjQ3MzM4OCAtMi4yNjk5ODYsMi4yNDI5MTMgLTAuMTMzNjU0LDAuMTE4MTk3IC0wLjI0ODk3NywwLjIzODMzNyAtMC4wODUzOCwwLjM4ODM5NyAwLjQ5NzAzLDAuODE0OTI4IDEuMDY0ODAzLDEuNTg0NjQ3IDEuNTk1NzU3LDIuMzc3NzU4IDAuMzI5OTM3LDAuNDc5MzYyIDAuNjU5OCwwLjk1ODYzOCAwLjk4OTczNSwxLjQzODAwNCAtMC40NDQ4NzMsMC42NTE0NDUgLTAuODQzMDk1LDEuMzMyNjMzIC0xLjIwMjE1NiwyLjAzNDY1NyAtMS40ODg1MjgsLTAuMTM5Njg0IC0yLjk3NDk0MywtMC4zMDk3OTggLTQuNDY2MDQsLTAuNDE5MTE0IC0wLjI4OTg1NiwwLjA1MzMxIC0wLjQ2MTU4MiwwLjMxNDkgLTAuNTMyMDkzLDAuNTgzMTE1IC0wLjI4NzY3NSwwLjk0OTY3MSAtMC41NjQ0NDEsMS45MDQyNzggLTAuODAzODY3LDIuODY3MTYxIC0wLjA5NTcsMC4zMDA2MTEgMC4wMjkxMywwLjY2ODk1IDAuMzQyMDYsMC43NzgzNTMgMS4yODc3NSwwLjYyMTMxNiAyLjU4MDk3OSwxLjIzMTA1MSAzLjg3MTQ3MiwxLjg0NjcwNiAtMC4wNjM0LDAuNzg1NzA4IC0wLjA3NzU5LDEuNTc1NDY5IC0wLjAyMjQsMi4zNjIxNDEgLTEuNDQ3NzQ1LDAuNjU5ODIgLTIuODk3ODQxLDEuMzE1MDE3IC00LjM1MTUwMSwxLjk2MTc2NiAwLjA2NzUxLDAuNzMzNzI1IDAuMzA0MDg4LDEuNDM3NDkgMC40NzA2NTgsMi4xNTIzMjMgMC4xODQzMywwLjY1NTE4IDAuMzEwMjM3LDEuMzMxMTQgMC41ODYyNCwxLjk1NjU2MSAxLjU4NjAwOCwtMC4xMzM0NDEgMy4xNzI5NjMsLTAuMjU2NDAzIDQuNzYwMjAxLC0wLjM3NDM0IDAuMTU2MzcsMC4zMjQyMTIgMC4zMTMxMDUsMC42NDg3NjYgMC40Njk2MTcsMC45NzMwNzQgMC4wODQ0NCwwLjAxMzUzIDAuMTM1ODc1LDAuMjMxMzk1IDAuMjEwODU4LDAuMzI0ODc5IDAuMTQ2OTI3LDAuMjU0Njg5IDAuMjkxNjMyLDAuNTEwNjcgMC40NTI0MzUsMC43NTcwMDggLTAuODYxMjkzLDEuMjA2NTAzIC0xLjc0NTkyLDIuMzk4MzE0IC0yLjU4NTQ5MiwzLjYyMDAwNCAtMC4wNDkxOCwwLjEzNjgzMyAtMC4yODc5NzUsMC4yODkxMjQgLTAuMTA3MjUyLDAuNDA3MTM5IDAuNzI3NDU4LDAuODEzOTg2IDEuNTA1MiwxLjU4MjczNCAyLjI3MzExLDIuMzU4NDk1IDAuMjA5NTQ4LDAuMjI4MzUgMC41MjYzNDEsMC40NjMxNDMgMC44NDYwMzcsMC4zMTU1MDcgMC43Mjc3OTQsLTAuNDU5MDQ0IDEuNDI3NDU4LC0wLjk2Njc3IDIuMTQxOTEsLTEuNDQ3Mzc3IDAuNTE0NjYxLC0wLjM1MjI3NyAxLjAyOTU1MywtMC43MDQ2MTggMS41NDQyMTYsLTEuMDU2ODk3IDAuNjYyMDQsMC40NTAwMTYgMS4zNjMyNywwLjg0MDE3NiAyLjA3NDc0NiwxLjIwNjMyMSAtMC4xNDA0NjMsMS40Njk5MzMgLTAuMzAzODA4LDIuOTM4MjQ5IC0wLjQxNzAzMiw0LjQxMDMzMiAwLjAzNDgsMC4xMzY0MTYgLTAuMDk4OTgsMC4zOTEyMDIgMC4wOTIxNiwwLjQxNzU1NCAxLjAzNTM2LDAuMzQyMzQ1IDIuMDkyNjE5LDAuNjE2NzYzIDMuMTQ0MTM4LDAuOTA0ODY5IDAuMjk3NjUyLDAuMDkxMDggMC42ODUyMzIsMC4xNTIxMDEgMC45MDM4MjksLTAuMTI1NDczIDAuMzE2MTE4LC0wLjU3NzA1IDAuNTc0NzgxLC0xLjE4NjI4NSAwLjg2NzM4NSwtMS43NzY0MjEgMC4zNTg5NDIsLTAuNzUyMjA5IDAuNzE5ODg3LC0xLjUwMzU5NCAxLjA3OTgwNiwtMi4yNTU0MDcgMC43ODY1ODksMC4wNjg0MyAxLjU3Nzg2LDAuMDc3NDEgMi4zNjU3ODIsMC4wMjcwOCAwLjY2MTE2NywxLjQ0NDUyOCAxLjMxODIyNCwyLjg5MTMxMSAxLjk2NTQxMyw0LjM0MjEyOCAwLjc0OTcyNSwtMC4wNzE4NyAxLjQ2ODk3NCwtMC4zMTIwNDYgMi4xOTk2OTksLTAuNDgxNTkxIDAuNjM3NDY4LC0wLjE2MzQ4MiAxLjI3NDk0OCwtMC4zMjY1MzUgMS45MTIzMDgsLTAuNDkwNDQxIC0wLjEyMDEzMiwtMS42MTIwNzIgLTAuMjUwMzYyLC0zLjIyMzMxOCAtMC4zNzI3NzgsLTQuODM1MTc1IDAuNzE2Mzc0LC0wLjMzNDA1MyAxLjQwOTAzLC0wLjcxNzc0MiAyLjA2NTg5NSwtMS4xNTczNzkgMS4yMDIwMiwwLjg1NDUyNCAyLjM5MTA4NCwxLjcyOTE3OSAzLjYwMjgyMywyLjU2ODgzMiAwLjI5MDI2LDAuMTY1ODI3IDAuNjIyMDk5LC0wLjAxNjY5IDAuODI4MzM2LC0wLjIzNDI4OCAwLjc4NjI2LC0wLjc1NDI1MyAxLjU3NDY5OCwtMS41MDgxNzkgMi4zMjM2MTIsLTIuMjk5NjYyIDAuMTg1NjIzLC0wLjEwNzI2NSAwLjExOTI5MiwtMC4yNDAyMzYgMC4wMDcyLC0wLjM3Nzk4NCAtMC42NTc3MjIsLTEuMDM1MjM2IC0xLjM3Nzk5NCwtMi4wMzAxMiAtMi4wNjQzMzMsLTMuMDQ2Nzc5IC0wLjE2NDUyNSwtMC4yMzkwMzMgLTAuMzI3NDY5LC0wLjQ3ODY3MSAtMC40OTMwNDUsLTAuNzE2OTIgMC40NDY2NDUsLTAuNjUzMDc3IDAuODUzMzIzLC0xLjMzMzY0OSAxLjIwODkyNCwtMi4wNDAzODMgMS41Nzc1NDYsMC4xNTAzMzcgMy4xNTMxMjgsMC4zMjMzMDYgNC43MzI2MDgsMC40NTI0MzUgMC4yOTMxNjksLTAuNTI1NTg3IDAuNDAwNTQ4LC0xLjEyNDkxNyAwLjU3NTgyNiwtMS42OTQ2OCAwLjE2NDI0MywtMC42NDUwMDYgMC4zODE5NzIsLTEuMjc3NDY4IDAuNTE2OTk1LC0xLjkyODk2OCAwLjAyNDU3LC0wLjIwMTU4MiAtMC4wMjk3MiwtMC40MTk5NzkgLTAuMjAzMDUsLTAuNTQwOTQ0IC0wLjU0MTcyMywtMC4yOTA1OSAtMS4xMTQ5NjcsLTAuNTM3MjU0IC0xLjY2ODY0OCwtMC44MTExNTUgLTAuNzkwOCwtMC4zNzg3MjIgLTEuNTgzMzU3LC0wLjc1NDc4NyAtMi4zNzUxNTQsLTEuMTMyMzg5IDAuMDYxODYsLTAuNzg3ODMxIDAuMDc3MDksLTEuNTg2OTU3IDAuMDI3NiwtMi4zNzI1NTIgMS40NDc3MjYsLTAuNjQzNTk0IDIuODg1OTk4LC0xLjMwNzkzIDQuMzM2NDAyLC0xLjk0NTYyOCAtMC4wMjg4OCwtMC42NTkyMDIgLTAuMjU5NzQ1LC0xLjI4NTIwNyAtMC40MDE0MTIsLTEuOTI0ODAzIC0wLjE3NjAyMiwtMC42NDM2NDUgLTAuMzEyNCwtMS4zMDEyMDYgLTAuNTM5OTAzLC0xLjkyODk2NyAtMC4wNDkwNiwtMC4xNzExNjQgLTAuMTA4OTE5LC0wLjMyNDg4OCAtMC4zMTQ0NjcsLTAuMjQzMTM5IC0xLjUxNDI3OCwwLjEyMjA0MyAtMy4wMzY0MywwLjI0NTk3NCAtNC41NDY3MzksMC4zNTI5OTQgLTAuMzM1NzQ0LC0wLjcxMzcyOSAtMC43MzM5OTEsLTEuMzk3NjI5IC0xLjE2NjIzMiwtMi4wNTY1MjQgMC44NjM2NTEsLTEuMjAzOTI5IDEuNzMyNDg3LC0yLjQwNDUwMyAyLjU5MjI2MiwtMy42MTExNTIgMC4wNjE1NywtMC4xNDY2MTUgMC4wODQzNiwtMC4yOTQxNzEgMC4wMTkyNywtMC40NDQxMDUgLTAuMTc2NTg5LC0wLjM1OTMyMyAtMC41MjE1MjIsLTAuNjAwMDQ4IC0wLjc4MTk5OSwtMC44OTY1NCAtMC41NzEzNzIsLTAuNTcwMDU0IC0xLjExMjYzOSwtMS4xNzM1MzIgLTEuNzE3NTg4LC0xLjcwODIxNyAtMC4xMzQzNTMsLTAuMDU5MzkgLTAuMjY1NTQxLC0wLjI5ODQ2OCAtMC40MDQwMTYsLTAuMTM5MDEgLTEuMjg1NTM0LDAuODUxMzA1IC0yLjU0Nzg5MSwxLjczNjUxMyAtMy44MjMwNTMsMi42MDMxOTUgLTAuNjUyNTI4LC0wLjQ0ODQ5NyAtMS4zMzc1NjIsLTAuODQ4Njk4IC0yLjA0NDAyOCwtMS4yMDYzMiAwLjEzODA2NSwtMS40NzQxNTIgMC4zMDYzOTYsLTIuOTQ2MDkgMC40MTg1OTUsLTQuNDIyMzA4IC0wLjAzMzMzLC0wLjEyOTcxNCAwLjEwOTMxOCwtMC4zODA4MjkgLTAuMDg0ODYsLTAuMzk5ODUyIC0xLjAzODAwNSwtMC4zNDM0ODYgLTIuMDk3NjgsLTAuNjE4MDc1IC0zLjE1MTk0OCwtMC45MDY5NTEgLTAuMjk5MDU3LC0wLjA5MTEzIC0wLjY5MTUyOCwtMC4xNTQxMzYgLTAuOTA2OTUyLDAuMTMwNjggLTAuMzQ3MDUsMC42Mzk5NTcgLTAuNjM3MTEyLDEuMzExOTA0IC0wLjk1OTU0LDEuOTY1NDEyIC0wLjMyNzgwMSwwLjY4NTg3OCAtMC42NTUyOTQsMS4zNzE2MjQgLTAuOTgyOTY1LDIuMDU3NTY1IC0wLjc4ODA1NCwtMC4wNjk2MiAtMS41ODA2OTYsLTAuMDcyMjUgLTIuMzY5OTQ5LC0wLjAyMDgyIC0wLjY3MTcxMSwtMS40NzA4ODkgLTEuMzMzODQ1LC0yLjk0NjA2OSAtMi4wMDg2MjYsLTQuNDE1NTM4IHogbSAtMC44ODU2MDYsMS44NDg3ODggMC4zMDE5NywwLjY2MTczNCBjIDAuNTA5NTU1LDEuMTMwNzI1IDEuMDIyNjU1LDIuMjYwMjIxIDEuNTQ4MzgxLDMuMzgzNjMyIGEgMTQuNDA2OTQyLDE0LjQwNjk0MiAwIDAgMSAyLjA1OTY0NywtMC4xNTA5ODYgMTQuNDA2OTQyLDE0LjQwNjk0MiAwIDAgMSAyLjEyODg5MywwLjE1ODc5NSBjIDAuMTQzMjUsLTAuMDY0MDkgMC4yNzIxMjcsLTAuMTU3NDg1IDAuMzczODE4LC0wLjI5MTAzNyAwLjIxMjMxOSwtMC4zMTg1MzMgMC4zNDMwMjMsLTAuNjg4ODM4IDAuNTIzNzYzLC0xLjAyNzIyMSAwLjQyNDc3OCwtMC44ODIwMDcgMC44NDE4MDksLTEuNzY3MjM2IDEuMjY3MjM1LC0yLjY0OTAxMiAwLjUwMTcxNiwwLjEzNzE4IDEuMDAyNjM4LDAuMjc3MTM4IDEuNTAyNTY0LDAuNDIwNjc3IC0wLjEzODQyNCwxLjQ3NTAxNSAtMC4yODY5NDQsMi45NDg4ODIgLTAuNDM2Mjk1LDQuNDIyODMgYSAxNC40MDY5NDIsMTQuNDA2OTQyIDAgMCAxIDMuODE2Mjg0LDIuMjY2MzQgYyAxLjIzMTIyNCwtMC44Mzk1ODQgMi40NTg5NzQsLTEuNjgzNDUzIDMuNjkwODA5LC0yLjUyMTk3NiAwLjM2NzE0NCwwLjM2ODE0MSAwLjcyNzU3MSwwLjc0MjYxOCAxLjA5MjMwMSwxLjExMzEyOCAtMC43NjUwNjQsMS4wNjY1MTcgLTEuNTMzNTA5LDIuMTMyMjY1IC0yLjI5NzA1OSwzLjE5ODgwNSAtMC4xMjQ0MjcsMC4yMTA1ODcgLTAuMTU3Njc4LDAuNDQ5MjIgLTAuMTI4MDc3LDAuNjgzMDc4IGEgMTQuNDA2OTQyLDE0LjQwNjk0MiAwIDAgMSAxLjk2Mzg1LDMuNTk5MTc3IGMgMS40OTU4MjMsLTAuMTE1ODcyIDIuOTkxODI4LC0wLjIzMTE2MiA0LjQ4NzM4OCwtMC4zNTAzODkgMC4xMzYxNTksMC41MDQzMzQgMC4yNjIwMDYsMS4wMTEwNjkgMC4zODk0MzYsMS41MTc2NjIgLTEuMjM5MjM5LDAuNTU4NTMxIC0yLjQ3MDk0LDEuMTE3OTM5IC0zLjcxMDA3MiwxLjY2NjU2NCAtMC4xODA1MTMsMC4xMjU1NzIgLTAuMjkzNTAzLDAuMzA0ODY3IC0wLjM1OTI0MSwwLjUwMzk4IGEgMTQuNDA2OTQyLDE0LjQwNjk0MiAwIDAgMSAwLjEwMTAwNCwxLjY5NTIgMTQuNDA2OTQyLDE0LjQwNjk0MiAwIDAgMSAtMC4xNDQ3MzgsMi4wMDU1MDEgYyAwLjA5MTU2LDAuMjg4NjA5IDAuMjgwNTg5LDAuNTQxMzcgMC41NzI3MDMsMC42NTcwNDggMS4xNDg0NzIsMC41NjEyNjEgMi4zMDYxNTksMS4xMDM1ODUgMy40NTg2MDQsMS42NTY2NzIgLTAuMTQwMzg2LDAuNTAxNDI5IC0wLjI3NTkzNCwxLjAwMDAyMyAtMC40MTk2MzUsMS41MDA0ODEgLTEuMzQ5MDMzLC0wLjEzNDE2IC0yLjcwMTQ2NSwtMC4yNTU1NjkgLTQuMDQ3OTY3LC0wLjQwMDg5MSAtMC4xODUwMzksLTAuMDQzNDEgLTAuMzc1NTk2LDcuOTRlLTQgLTAuNTI3NDA4LDAuMTAyNTY1IGEgMTQuNDA2OTQyLDE0LjQwNjk0MiAwIDAgMSAtMi4xNzAwMjIsMy42MTg5NjIgYyAwLjg1NjM0NiwxLjI0MjM4OCAxLjcxMzY0MSwyLjQ4Mzk3OSAyLjU2MjU4NSwzLjczMTQxOSAtMC4zNjgwOTEsMC4zNjYzNTkgLTAuNzM5MTU0LDAuNzI5Mjk3IC0xLjExMjA4NiwxLjA5MDczOCAtMC44OTMwNzgsLTAuNjM4Njc4IC0xLjc4Nzg0OCwtMS4yNzc1MDggLTIuNjY2NzEzLC0xLjkxMTI2NCAtMC4zNDQ5MjEsLTAuMjI4MjY4IC0wLjY4MjE0NSwtMC41NjQyOCAtMS4xMjkyNjYsLTAuNTI1MzI2IC0wLjA2NzA3LDAuMDA0NCAtMC4xMzIxMzIsMC4wMTUwNCAtMC4xOTUyMzgsMC4wMjk2NyBhIDE0LjQwNjk0MiwxNC40MDY5NDIgMCAwIDEgLTMuNDk1MDUsMS45MTU0MzEgYyAwLjA5OTA5LDEuNTA1NTc5IDAuMjIzNjE3LDMuMDA5MDUgMC4zMzk0NTYsNC41MTM0MTkgLTAuNTA1Mjg0LDAuMTI4ODI1IC0xLjAxMDI0OSwwLjI2MDI5MiAtMS41MTY2MiwwLjM4NDc1MiAtMC42MjA5ODUsLTEuMzcxOTQ2IC0xLjI0MTg2NSwtMi43NDM4MTcgLTEuODczMjU5LC00LjExMDk2NSBhIDE0LjQwNjk0MiwxNC40MDY5NDIgMCAwIDEgLTIuMDQxOTQ3LDAuMTQ4OTAyIDE0LjQwNjk0MiwxNC40MDY5NDIgMCAwIDEgLTEuOTgzMTEzLC0wLjE0MjEzNCBjIC0wLjE1NTE1LDAuMDQ4NCAtMC4zMDAwMDcsMC4xMjQ5MTcgLTAuNDIyMjM4LDAuMjQ2MjYyIC0wLjI2NDk5MSwwLjI4ODg4MiAtMC4zNjkyMDMsMC42ODI5MjggLTAuNTYwMjA5LDEuMDE5NDEyIC0wLjQ0NTYxNiwwLjkxNzQ1OCAtMC44Nzg2NzUsMS44Mzk3NTUgLTEuMzE5Mjk5LDIuNzU1NzQxIC0wLjUwMTkyMywtMC4xMzcyMzggLTEuMDAzMDksLTAuMjc3NjIyIC0xLjUwMzA4NCwtMC40MjE3MTcgMC4xMzc3NjEsLTEuNDkyNzY5IDAuMjkxNiwtMi45OTI3MzYgMC40Mzk5NCwtNC40OTA1MTEgYSAxNC40MDY5NDIsMTQuNDA2OTQyIDAgMCAxIC0zLjQ4MDk5MiwtMS45OTY2NSBjIC0wLjMzNjk2NywtMC4wODY4NiAtMC43MTA2MTcsLTAuMDE2MDMgLTAuOTc2NzE5LDAuMjE2MDY0IC0xLjAzNDAwOCwwLjY5MTA4NSAtMi4wNTI4MzgsMS40MDQ0NCAtMy4wODIxODIsMi4xMDIzNCAtMC4zNjY2NTIsLTAuMzY4NjE4IC0wLjcyNzkxMiwtMC43NDI4NjkgLTEuMDg5MTc4LC0xLjExNjc3IDAuNzc5ODQ2LC0xLjA4Njg3NyAxLjU1NTYyMiwtMi4xNzk2NDcgMi4zNDY1MjEsLTMuMjU2NTk3IDAuMTUwNjIzLC0wLjE1MDAwNyAwLjIxOTExMywtMC4zNjQzMSAwLjE5Nzg0MiwtMC41Njg1MzggYSAxNC40MDY5NDIsMTQuNDA2OTQyIDAgMCAxIC0yLjAzMjU3NCwtMy42NDQ5ODkgYyAtMS41MDQxNzMsMC4xMDg2OTcgLTMuMDA3ODkyLDAuMjI1ODMyIC00LjUxMTMzNywwLjM0NDE0MiAtMC4xMzUzNzgsLTAuNTAzNjg0IC0wLjI2NDQ3NSwtMS4wMDkzNjcgLTAuMzg5OTU4LC0xLjUxNTU4IDEuMjExNDg5LC0wLjU0Mzk0NiAyLjQyMDY5NSwtMS4wOTUxOTcgMy42MzA5MzYsLTEuNjQwNTMyIDAuMjA5Njk2LC0wLjA1MjU0IDAuMzcwOTE3LC0wLjIwMTYxNiAwLjQ2Mjg0OCwtMC4zODY4MzUgYSAxNC40MDY5NDIsMTQuNDA2OTQyIDAgMCAxIC0wLjEzNDMyNSwtMS45MTAyMjUgMTQuNDA2OTQyLDE0LjQwNjk0MiAwIDAgMSAwLjE0MjEzNCwtMS45ODEwMzEgYyAtMC4wMzc2NCwtMC4xMTA1NzIgLTAuMDkyMTQsLTAuMjE2NTk1IC0wLjE3MTgxLC0wLjMxNDQ2NiAtMC4yNDI4MzksLTAuMzA4NDU4IC0wLjY1MTA0MSwtMC4zOTIzMTggLTAuOTc4ODAzLC0wLjU4MTU1NCAtMC45NTM5MTksLTAuNDYxMTY0IC0xLjkxMzE3NSwtMC45MDkxMjcgLTIuODY4MTk5LC0xLjM2ODIzOSAwLjEzODI1OCwtMC41MDA5NCAwLjI3NjAyMSwtMS4wMDIwOSAwLjQyMzI4LC0xLjUwMDQ4MSAxLjQ4NTcyMywwLjEzNjU5NiAyLjk3ODgzLDAuMjg5MzEgNC40Njk2ODUsMC40MzUyNTQgYSAxNC40MDY5NDIsMTQuNDA2OTQyIDAgMCAxIDIuMjM4NzQ3LC0zLjgwMTcwNSBjIC0wLjg0NTAyLC0xLjIyOTA5NiAtMS42OTcxMDIsLTIuNDU3NzEyIC0yLjUyOTc4NCwtMy42ODc2ODcgMC4zNjc3ODcsLTAuMzY2MTQ3IDAuNzM4NjgyLC0wLjcyODcyNCAxLjExMTU2NCwtMS4wODk2OTcgMS4wNzQyODUsMC43NTUxNTggMi4xMzEyNDUsMS41MzcxOCAzLjIwNzEzNiwyLjI4ODIwOCAwLjE5NjY0NiwwLjExMTIwMyAwLjQyMjgzNCwwLjE1NzczNiAwLjY0NDU1MiwwLjE0MzE3NiBhIDE0LjQwNjk0MiwxNC40MDY5NDIgMCAwIDEgMy42MzQ1NzksLTIuMDE1MzkzIGMgLTAuMTA3MzIyLC0xLjQ3ODg3IC0wLjIyMzE3NywtMi45NTcxNzIgLTAuMzM5OTc3LC00LjQzNTMyNCAwLjUwMzY4NSwtMC4xMzQyMiAxLjAwOTA3OSwtMC4yNjI2MjMgMS41MTQwMTksLTAuMzkyMDQzIHogbSAzLjkwOTk5OCw2LjI0ODE4OSBBIDEyLjA1MzAxNCwxMi4wNTMwMTQgMCAwIDAgMjguMDYwMDMxLDYxLjkzMzI2NCAxMi4wNTMwMTQsMTIuMDUzMDE0IDAgMCAwIDQwLjExMzM0NCw3My45ODY1NzcgMTIuMDUzMDE0LDEyLjA1MzAxNCAwIDAgMCA1Mi4xNjYxMzYsNjEuOTMzMjY0IDEyLjA1MzAxNCwxMi4wNTMwMTQgMCAwIDAgNDAuMTEzMzQ0LDQ5Ljg4MDQ3MiBaIG0gMCwxLjYzNDgwNiBBIDEwLjQxODA2MiwxMC40MTgwNjIgMCAwIDEgNTAuNTMxMzMsNjEuOTMzMjY0IDEwLjQxODA2MiwxMC40MTgwNjIgMCAwIDEgNDAuMTEzMzQ0LDcyLjM1MTI1IDEwLjQxODA2MiwxMC40MTgwNjIgMCAwIDEgMjkuNjk0ODM4LDYxLjkzMzI2NCAxMC40MTgwNjIsMTAuNDE4MDYyIDAgMCAxIDQwLjExMzM0NCw1MS41MTUyNzggWiIgLz4KICA8L2c+Cjwvc3ZnPgo=;" vertex="1" parent="1">
          <mxGeometry x="652" y="290" width="30" height="30" as="geometry" />
        </mxCell>
        <mxCell id="JDpEO1lSi9x2BgJFtEtq-49" value="&lt;ul style=&quot;font-size: 14px;&quot;&gt;&lt;li style=&quot;font-size: 14px;&quot;&gt;Technical focus: Conversion&lt;/li&gt;&lt;li style=&quot;font-size: 14px;&quot;&gt;Reduced &lt;b&gt;Core Feature Set&lt;/b&gt;&lt;br&gt;without any &quot;syntactic sugar&quot;&lt;/li&gt;&lt;/ul&gt;" style="text;html=1;align=left;verticalAlign=middle;whiteSpace=wrap;rounded=0;fontSize=14;" vertex="1" parent="1">
          <mxGeometry x="94" y="309" width="280" height="57" as="geometry" />
        </mxCell>
        <mxCell id="JDpEO1lSi9x2BgJFtEtq-50" value="Simple NOT" style="shape=hexagon;perimeter=hexagonPerimeter2;whiteSpace=wrap;html=1;fixedSize=1;strokeWidth=2;" vertex="1" parent="1">
          <mxGeometry x="432" y="355" width="120" height="30" as="geometry" />
        </mxCell>
        <mxCell id="JDpEO1lSi9x2BgJFtEtq-51" value="&amp;lt;" style="rounded=0;whiteSpace=wrap;html=1;strokeWidth=2;flipH=0;" vertex="1" parent="1">
          <mxGeometry x="439" y="307" width="30" height="30" as="geometry" />
        </mxCell>
        <mxCell id="JDpEO1lSi9x2BgJFtEtq-52" value="&amp;gt;" style="rounded=0;whiteSpace=wrap;html=1;strokeWidth=2;flipH=0;" vertex="1" parent="1">
          <mxGeometry x="517" y="307" width="30" height="30" as="geometry" />
        </mxCell>
        <mxCell id="JDpEO1lSi9x2BgJFtEtq-53" value="=" style="rounded=0;whiteSpace=wrap;html=1;strokeWidth=2;flipH=0;" vertex="1" parent="1">
          <mxGeometry x="477" y="307" width="30" height="30" as="geometry" />
        </mxCell>
        <mxCell id="JDpEO1lSi9x2BgJFtEtq-54" value="Contains" style="rounded=0;whiteSpace=wrap;html=1;strokeWidth=2;flipH=0;" vertex="1" parent="1">
          <mxGeometry x="558" y="307" width="64" height="30" as="geometry" />
        </mxCell>
        <mxCell id="JDpEO1lSi9x2BgJFtEtq-55" value="AND" style="rhombus;whiteSpace=wrap;html=1;strokeWidth=2;" vertex="1" parent="1">
          <mxGeometry x="567" y="350" width="44" height="40" as="geometry" />
        </mxCell>
        <mxCell id="JDpEO1lSi9x2BgJFtEtq-56" value="OR" style="rhombus;whiteSpace=wrap;html=1;strokeWidth=2;" vertex="1" parent="1">
          <mxGeometry x="631" y="350" width="44" height="40" as="geometry" />
        </mxCell>
        <mxCell id="JDpEO1lSi9x2BgJFtEtq-58" value="DLLM" style="text;html=1;align=center;verticalAlign=middle;whiteSpace=wrap;rounded=0;fontStyle=1;fontSize=20;rotation=-90;" vertex="1" parent="1">
          <mxGeometry x="30" y="210" width="78" height="30" as="geometry" />
        </mxCell>
        <mxCell id="JDpEO1lSi9x2BgJFtEtq-63" value="PlExpression" style="text;html=1;align=center;verticalAlign=middle;whiteSpace=wrap;rounded=0;fontStyle=1;fontSize=18;fontColor=#6C8EBF;" vertex="1" parent="1">
          <mxGeometry x="238" y="237" width="139" height="30" as="geometry" />
        </mxCell>
        <mxCell id="JDpEO1lSi9x2BgJFtEtq-64" value="CoreExpression" style="text;html=1;align=center;verticalAlign=middle;whiteSpace=wrap;rounded=0;fontStyle=1;fontSize=18;fontColor=#666666;" vertex="1" parent="1">
          <mxGeometry x="266" y="369" width="150" height="30" as="geometry" />
        </mxCell>
      </root>
    </mxGraphModel>
  </diagram>
</mxfile>
